<?xml version="1.0" standalone="no"?>
<!DOCTYPE svg PUBLIC "-//W3C//DTD SVG 20010904//EN"
 "http://www.w3.org/TR/2001/REC-SVG-20010904/DTD/svg10.dtd">
<svg version="1.0" xmlns="http://www.w3.org/2000/svg"
 viewBox="0 0 578 560"
 preserveAspectRatio="xMidYMid meet">

<g transform="translate(0.000000,564.000000) scale(0.100000,-0.100000)"
fill="#000000" stroke="none">
<path d="M3205 5633 c-269 -36 -440 -280 -422 -603 l6 -105 -212 0 c-155 0
-242 -5 -322 -18 -124 -20 -336 -72 -377 -93 -48 -25 -62 -18 -81 39 -42 119
-88 195 -165 272 -139 138 -316 181 -498 120 -43 -14 -89 -34 -103 -44 -14
-10 -33 -20 -41 -24 -28 -11 -127 -95 -163 -138 -83 -102 -118 -227 -97 -346
19 -111 72 -205 172 -307 49 -49 88 -91 88 -93 0 -3 -36 -39 -80 -80 -379
-356 -697 -883 -824 -1364 -48 -181 -57 -235 -73 -404 -14 -144 -14 -194 -4
-325 17 -211 56 -405 114 -565 56 -153 181 -372 296 -520 70 -90 307 -327 391
-392 370 -284 801 -474 1295 -572 468 -93 1008 -97 1505 -11 430 75 870 244
1195 458 171 113 335 246 335 272 0 6 4 9 9 5 8 -4 50 39 170 175 50 57 168
234 206 311 85 168 130 307 164 500 54 316 51 540 -14 836 -136 616 -539 1231
-1080 1646 -246 188 -554 357 -833 457 -34 13 -64 26 -66 29 -3 3 17 38 43 77
54 79 97 203 106 304 12 126 -41 260 -138 353 -103 98 -347 171 -502 150z
m207 -134 c66 -12 165 -60 213 -101 63 -55 90 -118 90 -208 0 -46 -7 -95 -18
-127 -36 -104 -140 -233 -250 -313 -26 -18 -47 -36 -47 -39 0 -3 53 -21 117
-39 169 -48 287 -93 471 -183 300 -144 528 -304 761 -532 257 -252 425 -484
576 -792 165 -340 246 -666 245 -992 -1 -103 -3 -132 -30 -318 -81 -567 -463
-1040 -1085 -1341 -337 -164 -661 -254 -1120 -311 -201 -25 -759 -25 -930 0
-482 71 -776 156 -1099 319 -455 229 -822 600 -998 1008 -122 284 -173 648
-134 960 46 363 192 760 393 1067 35 53 35 53 52 32 25 -31 63 -26 127 16 83
55 156 75 278 75 117 0 149 13 144 58 -2 19 -17 36 -51 59 -63 42 -116 56
-198 51 -55 -3 -77 -10 -137 -45 -40 -23 -69 -36 -65 -30 50 84 332 378 477
497 86 71 88 74 65 84 -218 88 -316 164 -381 295 -64 128 -35 247 89 361 75
69 138 102 237 127 220 54 455 -113 521 -372 8 -32 15 -79 15 -102 0 -42 13
-55 36 -35 31 28 296 109 466 144 103 21 139 23 404 23 l290 -1 -24 59 c-65
163 -49 349 44 485 103 150 249 201 456 161z"/>
<path d="M3250 5290 c-78 -15 -149 -86 -175 -177 -22 -75 -4 -143 54 -211 45
-52 151 -67 227 -33 70 32 134 133 134 211 0 65 -40 138 -102 186 -28 22 -91
33 -138 24z"/>
<path d="M1298 4890 c-87 -22 -152 -85 -166 -162 -16 -85 23 -159 109 -208 36
-21 57 -25 119 -25 64 0 82 4 123 28 180 106 114 345 -103 370 -25 3 -62 2
-82 -3z"/>
<path d="M4600 3800 c-34 -11 -67 -32 -87 -54 -29 -32 -32 -38 -21 -61 13 -29
23 -32 138 -39 106 -6 158 -24 235 -81 66 -50 82 -54 115 -27 19 16 22 24 16
55 -17 90 -209 228 -314 227 -15 -1 -52 -9 -82 -20z"/>
<path d="M2385 3479 c-235 -44 -416 -124 -590 -263 -72 -57 -165 -155 -221
-231 -26 -36 -51 -65 -54 -65 -3 0 -14 17 -24 38 -45 94 -170 226 -266 280
-117 66 -288 96 -404 72 -73 -15 -169 -57 -243 -108 -221 -150 -345 -450 -303
-733 32 -224 139 -404 308 -522 119 -83 181 -102 332 -102 157 0 215 17 365
108 11 7 24 18 28 25 15 24 33 11 55 -38 12 -28 22 -52 22 -55 0 -11 112 -184
130 -200 28 -26 25 -32 -21 -39 -66 -10 -109 -32 -109 -55 0 -11 4 -22 9 -25
5 -3 12 -18 15 -32 23 -89 201 -257 369 -346 41 -22 64 -42 77 -67 53 -104
169 -184 265 -182 59 0 113 19 147 50 12 12 29 19 37 17 9 -3 49 -10 89 -17
68 -12 76 -15 97 -48 55 -86 123 -120 243 -121 117 0 170 19 230 85 l48 53
111 10 c101 10 114 10 162 -8 28 -11 69 -20 90 -20 66 0 153 47 210 113 13 16
60 47 105 69 201 101 318 210 397 369 29 58 59 146 59 175 0 13 -47 22 -183
34 -54 4 -101 10 -103 13 -3 3 11 34 31 70 72 132 123 329 126 490 0 42 0 42
33 -38 17 -44 41 -99 53 -121 12 -23 19 -45 15 -49 -4 -5 -2 -6 3 -3 6 3 35
-22 65 -56 173 -195 424 -267 659 -190 54 18 139 64 189 102 57 43 142 134
142 152 0 6 4 10 8 10 5 0 25 32 45 70 140 268 104 628 -87 871 -77 98 -200
184 -316 220 -84 27 -242 28 -326 4 -114 -33 -193 -82 -284 -174 -108 -108
-170 -225 -200 -371 -11 -52 -20 -106 -21 -120 -1 -21 -2 -19 -10 10 -61 229
-141 374 -283 515 -44 45 -92 89 -106 98 -157 106 -224 140 -370 191 -58 20
-161 48 -230 63 -109 22 -154 26 -345 28 -121 2 -242 -1 -270 -6z m494 -104
c298 -44 531 -145 707 -308 180 -167 274 -364 305 -639 15 -127 1 -324 -31
-453 -36 -143 -117 -287 -206 -364 -203 -179 -508 -261 -969 -261 -587 0 -953
145 -1131 449 -77 132 -114 285 -114 471 0 176 38 324 128 494 169 321 444
530 797 607 106 23 367 25 514 4z m-1774 -221 c121 -43 245 -146 311 -257 49
-83 50 -96 16 -163 -16 -33 -37 -83 -47 -112 l-17 -54 -19 31 c-51 85 -157 93
-228 17 -32 -34 -41 -119 -17 -164 35 -67 131 -97 190 -59 14 10 27 17 28 17
2 0 3 -71 3 -158 l0 -158 -35 -31 c-51 -44 -113 -81 -173 -102 -74 -27 -106
-33 -194 -32 -154 0 -275 53 -394 171 -123 123 -182 269 -182 450 1 115 21
207 67 298 82 163 209 270 377 317 72 20 245 14 314 -11z m3680 -39 c199 -51
348 -191 423 -397 24 -66 27 -86 27 -213 0 -156 -9 -194 -73 -320 -46 -88
-153 -198 -239 -243 -69 -36 -196 -72 -255 -72 -71 0 -192 31 -263 68 -95 49
-199 154 -249 251 -53 102 -76 195 -76 311 0 189 56 327 185 455 44 44 105 94
135 109 115 62 265 81 385 51z m-1196 -1710 c50 -133 5 -252 -123 -325 -60
-35 -128 -40 -184 -13 -49 23 -120 97 -163 170 l-36 59 98 23 c121 29 235 68
314 109 33 17 63 31 67 32 4 0 16 -25 27 -55z m-1542 -66 c106 -37 253 -69
314 -69 15 0 30 -4 33 -9 7 -11 -48 -98 -92 -144 -78 -81 -165 -98 -260 -51
-61 30 -128 102 -142 153 -11 40 -13 114 -4 149 5 17 11 21 23 16 9 -4 66 -24
128 -45z m960 -116 c-14 -128 -52 -206 -126 -258 -40 -28 -48 -30 -134 -30
-84 0 -96 3 -135 28 -71 46 -116 132 -129 242 l-5 50 158 3 c88 1 191 6 229
11 39 5 88 9 109 10 l39 1 -6 -57z"/>
<path d="M2065 2695 c-187 -101 -223 -492 -61 -663 51 -55 99 -75 172 -70 104
6 168 65 218 198 28 76 29 260 3 340 -26 76 -70 143 -119 176 -34 24 -53 29
-112 32 -51 2 -79 -2 -101 -13z"/>
<path d="M3040 2641 c-152 -50 -228 -208 -189 -393 24 -113 91 -198 182 -233
68 -26 163 -17 225 22 189 116 169 485 -31 582 -48 23 -148 35 -187 22z"/>
<path d="M4391 2652 c-134 -68 -85 -272 66 -272 37 0 50 6 85 38 37 35 42 45
45 93 5 63 -17 107 -69 139 -41 25 -82 25 -127 2z"/>
<path d="M1222 1804 c-66 -25 -77 -69 -29 -121 45 -49 133 -36 169 25 17 29
14 75 -6 91 -22 18 -90 21 -134 5z"/>
<path d="M838 1738 c-32 -18 -38 -27 -38 -54 0 -45 47 -84 102 -84 78 0 139
98 90 143 -27 25 -108 22 -154 -5z"/>
<path d="M4472 1743 c-58 -28 -62 -75 -10 -118 52 -44 115 -31 161 35 22 32
22 55 -3 80 -25 25 -100 27 -148 3z"/>
<path d="M1135 1543 c-36 -9 -75 -44 -75 -66 1 -52 71 -101 123 -86 40 11 87
62 87 93 0 48 -65 76 -135 59z"/>
<path d="M4329 1537 c-67 -30 -77 -70 -30 -118 23 -22 39 -29 70 -29 81 0 134
87 86 140 -21 23 -83 26 -126 7z"/>
<path d="M4756 1540 c-71 -22 -88 -80 -35 -124 43 -36 98 -36 138 2 44 39 49
75 17 106 -26 27 -64 32 -120 16z"/>
</g>
</svg>
